<svg width="62" height="62" viewBox="0 0 62 62" fill="none" xmlns="http://www.w3.org/2000/svg">
<path d="M15.7422 53.4726V35.7776L22.4207 42.5415V58.6753L15.7422 53.4726Z" fill="url(#paint0_radial_1_103)"/>
<path d="M47.7034 9.02149V26.714L40.5479 19.9479V3.81631L47.7034 9.02149Z" fill="url(#paint1_radial_1_103)"/>
<path d="M40.5479 0V9.17872L54.3526 17.1157V44.3862L40.5479 52.3232V60.5834L61.5374 48.5147V12.984L40.5479 0Z" fill="url(#paint2_radial_1_103)"/>
<path d="M22.4206 53.2699L7.14181 44.4257V17.1309L22.4206 8.28678V0L0 12.9955V48.5579L22.4206 61.5374V53.2699Z" fill="url(#paint3_radial_1_103)"/>
<path d="M48.1804 54.8588H40.5479V36.7315L48.1804 38.7031V54.8588Z" fill="url(#paint4_radial_1_103)"/>
<path d="M48.1805 38.4528L43.932 44.3642L15.2651 24.0387L19.5136 18.1273L48.1805 38.4528Z" fill="url(#paint5_radial_1_103)"/>
<defs>
<radialGradient id="paint0_radial_1_103" cx="0" cy="0" r="1" gradientUnits="userSpaceOnUse" gradientTransform="translate(115.24 21.8108) scale(113.945 115.62)">
<stop stop-color="#F33C99"/>
<stop offset="1" stop-color="#6220D4"/>
</radialGradient>
<radialGradient id="paint1_radial_1_103" cx="0" cy="0" r="1" gradientUnits="userSpaceOnUse" gradientTransform="translate(120.017 22.1146) scale(120.996 115.604)">
<stop stop-color="#F33C99"/>
<stop offset="1" stop-color="#6220D4"/>
</radialGradient>
<radialGradient id="paint2_radial_1_103" cx="0" cy="0" r="1" gradientUnits="userSpaceOnUse" gradientTransform="translate(116.564 0.160021) scale(115.739 115.432)">
<stop stop-color="#F33C99"/>
<stop offset="1" stop-color="#6220D4"/>
</radialGradient>
<radialGradient id="paint3_radial_1_103" cx="0" cy="0" r="1" gradientUnits="userSpaceOnUse" gradientTransform="translate(116.138 0.160164) scale(115.047 115.534)">
<stop stop-color="#F33C99"/>
<stop offset="1" stop-color="#6220D4"/>
</radialGradient>
<radialGradient id="paint4_radial_1_103" cx="0" cy="0" r="1" gradientUnits="userSpaceOnUse" gradientTransform="translate(119.954 22.3146) scale(120.901 115.068)">
<stop stop-color="#F33C99"/>
<stop offset="1" stop-color="#6220D4"/>
</radialGradient>
<radialGradient id="paint5_radial_1_103" cx="0" cy="0" r="1" gradientUnits="userSpaceOnUse" gradientTransform="translate(116.901 22.032) scale(115.824 115.249)">
<stop stop-color="#F33C99"/>
<stop offset="1" stop-color="#6220D4"/>
</radialGradient>
</defs>
</svg>
